<svg fill="none" height="600" viewBox="0 0 600 600" width="600" xmlns="http://www.w3.org/2000/svg"><rect fill="#7000ff" height="600" rx="90" width="600"/><path clip-rule="evenodd" d="m325.979 356.318c-2.724-1.646-1.339-.749-4.46-2.097-7.684-3.321-18.611-7.094-32.778-11.32-20.498-6.337-37.226-12.675-50.187-19.013-12.96-6.338-24.113-15.695-33.457-28.069-9.344-12.373-14.018-28.519-14.018-48.441 0-29.576 10.703-52.738 32.103-69.489 21.401-16.753 49.281-25.125 83.644-25.125 34.965 0 63.146 8.372 84.548 25.125 13.766 10.774 23.415 24.265 28.95 40.471l-19.595 29.472h-58.636c-.604-10.262-4.372-18.334-11.305-24.219-6.933-5.886-15.823-8.83-26.674-8.83-9.345 0-16.88 2.493-22.609 7.471-5.726 4.981-8.589 12.148-8.589 21.504 0 10.262 4.823 18.26 14.469 23.994 9.644 5.733 24.763 11.787 45.212 18.562 20.541 6.803 24.413 7.404 37.22 13.741zm173.635-156.922c-1.525 0-3.015-.05-4.474-.146-18.957 34.217-42.131 67.813-62.748 94.018-7.313 9.297-15.239 18.319-26.242 29.738 3.395 3.312 6.609 6.926 9.641 10.841 9.344 12.073 14.014 27.617 14.014 46.631 0 18.108-4.597 34.557-13.791 49.346-9.191 14.789-22.53 26.558-40.014 35.311-17.482 8.753-38.127 13.13-61.939 13.13-23.21 0-44.01-3.773-62.396-11.319-.721-.295-1.436-.599-2.145-.904-5.782 4.232-11.593 8.487-12.237 8.947-37.933 27.078-112.502 74.936-158.4385 58.743-9.0969-3.204-16.1045-13.856-20.2073-20.387-22.0502-35.107 62.5508-169.301 82.2608-184.732-18.024 31.846-87.9431 142.92-56.8707 181.006 4.8954 6.001 18.4447 6.298 38.1967 1.213 35.69-9.188 72.944-38.573 99.29-62.28-5.163-4.527-9.807-9.561-13.931-15.106-11.002-14.788-16.805-32.595-17.407-53.42h82.287c1.205 11.771 5.276 20.748 12.208 26.936 6.933 6.186 15.976 9.281 27.129 9.281 11.452 0 20.495-2.641 27.126-7.924 6.631-5.281 9.947-12.599 9.947-21.955 0-4.535-.88-8.616-2.64-12.244l-2.728-4.037.16-.139c-.808-1.064-1.709-2.08-2.704-3.047l-.405-.393c56.538-49.384 101.253-104.898 137.531-171.219-4.039-1.77-7.687-4.114-10.948-7.029-8.306-7.423-12.459-16.925-12.459-28.512 0-11.582 4.153-21.157 12.459-28.734 8.304-7.571 19.129-11.36 32.475-11.36 1.337 0 2.65.038 3.938.115-.281-7.577-2.189-14.08-6.1-19.175-16.093-20.9614-77.063 18.901-110.716 50.222-23.434-11.279-40.442-11.578-53.628-13.119 57.83-44.5119 160.028-105.0013 190.63-59.5817 8.408 12.4817 7.531 34.4107 3.251 48.8317v.001c1.874 1.206 3.652 2.562 5.332 4.066 8.45 7.577 12.679 17.152 12.679 28.734 0 11.587-4.157 21.089-12.459 28.512-8.309 7.425-19.281 11.14-32.927 11.14z" fill="#fff" fill-rule="evenodd"/></svg>