<svg width="24" height="24" viewBox="0 0 24 24" fill="none" xmlns="http://www.w3.org/2000/svg">
<path fill-rule="evenodd" clip-rule="evenodd" d="M23.4921 21.5154H16.0647C15.5125 21.5154 15.0647 21.0677 15.0647 20.5154V14.2898C15.0647 13.8371 15.4317 13.4701 15.8844 13.4701C16.6285 13.4701 17.2319 14.0786 17.2269 14.8228V16.2256C17.2269 17.6989 18.4186 18.8906 19.8919 18.8906C21.3652 18.8906 22.5569 17.6989 22.5569 16.2256V8.2709C22.5569 7.44626 22.2502 6.65179 21.687 6.04337L18.0867 1.9413C17.9035 1.73254 17.5857 1.71204 17.3772 1.89553C17.1691 2.07863 17.1486 2.39564 17.3314 2.60402L19.4571 5.02798C19.7152 5.32223 19.546 5.81321 19.2251 6.03727C18.6049 6.47034 18.2541 7.2342 18.3884 8.02954C18.5493 9.00503 19.3941 9.71905 20.3847 9.71905C20.4778 9.71792 20.5704 9.71079 20.6619 9.69771C21.0632 9.64034 21.5512 9.9065 21.5512 10.3119V16.2256C21.5512 17.1408 20.807 17.885 19.8919 17.885C18.9767 17.885 18.2326 17.1408 18.2326 16.2256V14.8328C18.2376 13.5305 17.1867 12.4695 15.8894 12.4645H15.8844C15.4317 12.4645 15.0647 12.0975 15.0647 11.6449V3.09679C15.0647 1.95035 14.1395 1 12.9931 1H3.65053C2.50409 1 1.58894 1.95537 1.58894 3.09679V20.5154C1.58894 21.0677 1.14122 21.5154 0.588938 21.5154H0.502828C0.226273 21.5154 0 21.7417 0 22.0182C0 22.2948 0.226273 22.5211 0.502828 22.5211H23.4972C23.7737 22.5211 24 22.2948 24 22.0182C24 21.7417 23.7737 21.5154 23.4921 21.5154ZM5.5 4C4.67157 4 4 4.67157 4 5.5V9.5C4 10.3284 4.67157 11 5.5 11H11.5C12.3284 11 13 10.3284 13 9.5V5.5C13 4.67157 12.3284 4 11.5 4H5.5Z" />
</svg>
