<svg height="122pt" viewBox="0 0 122 122" width="122pt" xmlns="http://www.w3.org/2000/svg"><path d="m33.375 23.954h57.275v79.424h-57.275z" fill="#fff" fill-rule="evenodd" stroke-width=".75"/><path d="m0 610v-610h1220v1220h-1220zm687 255c44-26 66-64 71-120 6-69-16-114-79-162-50-38-56-49-61-113-3-33-5-35-38-35h-35l-3 59-3 58 70 67c62 59 71 73 71 103 0 21-9 46-21 62-17 21-29 26-65 26-53 0-91-33-96-83-3-29-6-32-38-32h-35l1 48c0 58 24 94 85 125 35 19 55 22 96 18 29-2 65-12 80-21zm-59-557-3-53h-90l-3 53-3 52h102z" transform="matrix(.1 0 0 -.1 0 122)"/></svg>