<svg enable-background="new 0 0 470.287 514.251" height="514.251" viewBox="0 0 470.287 514.251" width="470.287" xmlns="http://www.w3.org/2000/svg"><path d="m291.134 237.469 35.654-60.5 96.103 149.684.046 28.727-.313-197.672c-.228-4.832-2.794-9.252-6.887-11.859l-173.022-99.525c-4.045-1.99-9.18-1.967-13.22.063-.546.272-1.06.57-1.548.895l-.604.379-167.944 97.322-.651.296c-.838.385-1.686.875-2.48 1.444-3.185 2.283-5.299 5.66-5.983 9.448-.103.574-.179 1.158-.214 1.749l.264 161.083 89.515-138.745c11.271-18.397 35.825-24.323 58.62-24.001l26.753.706-157.635 252.802 18.582 10.697 159.522-263.242 70.51-.256-159.111 269.885 66.306 38.138 7.922 4.556c3.351 1.362 7.302 1.431 10.681.21l175.453-101.678-33.544 19.438zm13.602 195.926-66.969-105.108 40.881-69.371 87.952 138.628z" fill="#2d374b"/><path d="m237.768 328.286 66.968 105.109 61.865-35.852-87.953-138.628z" fill="#28a0f0"/><path d="m422.937 355.379-.046-28.727-96.103-149.684-35.654 60.5 92.774 150.043 33.544-19.438c3.29-2.673 5.281-6.594 5.49-10.825z" fill="#28a0f0"/><path d="m20.219 382.469 47.369 27.296 157.634-252.801-26.753-.706c-22.795-.322-47.35 5.604-58.62 24.001l-89.515 138.745-30.115 46.271z" fill="#fff"/><path d="m316.202 156.964-70.51.256-159.522 263.242 55.758 32.103 15.163-25.716z" fill="#fff"/><path d="m452.65 156.601c-.59-14.746-8.574-28.245-21.08-36.104l-175.29-100.805c-12.371-6.229-27.825-6.237-40.218-.004-1.465.739-170.465 98.752-170.465 98.752-2.339 1.122-4.592 2.458-6.711 3.975-11.164 8.001-17.969 20.435-18.668 34.095v208.765l30.115-46.271-.263-161.083c.035-.589.109-1.169.214-1.741.681-3.79 2.797-7.171 5.983-9.456.795-.569 172.682-100.064 173.228-100.337 4.04-2.029 9.175-2.053 13.22-.063l173.022 99.523c4.093 2.607 6.659 7.027 6.887 11.859v199.542c-.209 4.231-1.882 8.152-5.172 10.825l-33.544 19.438-17.308 10.031-61.864 35.852-62.737 36.357c-3.379 1.221-7.33 1.152-10.681-.21l-74.228-42.693-15.163 25.717 66.706 38.406c2.206 1.255 4.171 2.367 5.784 3.272 2.497 1.4 4.199 2.337 4.8 2.629 4.741 2.303 11.563 3.643 17.71 3.643 5.636 0 11.132-1.035 16.332-3.072l182.225-105.531c10.459-8.104 16.612-20.325 17.166-33.564z" fill="#96bedc"/></svg>
