<svg width="24" height="24" viewBox="0 0 24 24" fill="none" xmlns="http://www.w3.org/2000/svg">
<g clip-path="url(#clip0_9_27)">
<path d="M12 24C18.6274 24 24 18.6274 24 12C24 5.37258 18.6274 0 12 0C5.37258 0 0 5.37258 0 12C0 18.6274 5.37258 24 12 24Z" fill="black"/>
<path d="M7.08821 5.75709L12.0001 3L16.912 5.75709L15.1061 6.77558L12.0001 5.03709L8.89392 6.77558L7.08821 5.75709ZM16.912 9.23417L15.1061 8.21558L12.0001 9.95417L8.89392 8.21558L7.08821 9.23417V11.2713L10.1942 13.0096V16.4868L12.0001 17.5054L13.806 16.4868V13.0096L16.912 11.2713V9.23417ZM16.912 14.7482V12.7112L15.1061 13.7297V15.7668L16.912 14.7482ZM18.1941 15.4683L15.0881 17.2067V19.2438L20 16.4868V10.9727L18.1941 11.9911V15.4683ZM16.3882 7.49558L18.1941 8.51412V10.5512L20 9.53266V7.49558L18.1941 6.47709L16.3882 7.49558ZM10.1942 17.9444V19.9815L12.0001 21L13.806 19.9815V17.9444L12.0001 18.9629L10.1942 17.9444ZM7.08821 14.7482L8.89392 15.7668V13.7297L7.08821 12.7112V14.7482ZM10.1942 7.49558L12.0001 8.51412L13.806 7.49558L12.0001 6.47709L10.1942 7.49558ZM5.80587 8.51412L7.61179 7.49558L5.80587 6.47709L4 7.49558V9.53266L5.80587 10.5512V8.51412ZM5.80587 11.9911L4 10.9727V16.4868L8.91205 19.2438V17.2067L5.80587 15.4683V11.9911Z" fill="#F0B90B"/>
</g>
<defs>
<clipPath id="clip0_9_27">
<rect width="24" height="24" fill="white"/>
</clipPath>
</defs>
</svg>
