<svg fill="none" height="24" viewBox="0 0 24 24" width="24" xmlns="http://www.w3.org/2000/svg"><path d="m24 12c0 6.6274-5.3726 12-12 12-6.62742 0-12-5.3726-12-12 0-6.62742 5.37258-12 12-12 6.6274 0 12 5.37258 12 12z" fill="#7000ff"/><g fill="#120e0d"><path d="m17.907 6.09332c-1.4581-1.45776-3.822-1.45776-5.2798 0l-2.0832 2.0824c.1649-.01794.3316-.02565.499-.02565.5273 0 1.0399.08376 1.5252.24523l1.1805-1.18006c.4054-.40587.9446-.62889 1.518-.62889s1.1126.22302 1.518.62889c.4055.40503.6284.94336.6284 1.51757 0 .57336-.2229 1.11254-.6284 1.51759l-2.3096 2.3097c-.4054.4059-.9447.6288-1.518.6288-.5743 0-1.1126-.2229-1.5184-.6288-.1974-.1966-.3512-.4256-.4571-.6751-.2632.0145-.5093.1239-.6973.3118l-.61523.6161c.16833.3119.38453.6058.64773.8699 1.4577 1.4578 3.822 1.4578 5.2802 0l2.31-2.3105c1.4573-1.45771 1.4573-3.82121 0-5.27898z"/><path d="m12.9818 15.849c-.5281 0-1.0459-.0854-1.5423-.2538l-1.1886 1.1887c-.40499.4059-.94414.6289-1.5175.6289s-1.11167-.223-1.51757-.6289c-.40587-.4051-.6289-.9442-.6289-1.5176s.22303-1.1126.6289-1.5184l2.30966-2.3097c.40587-.405.94421-.628 1.51761-.628.5742 0 1.1125.223 1.5179.628.1974.1974.3516.4264.458.6759.2641-.0137.5106-.1239.6986-.3119l.6143-.6152c-.1683-.3127-.3849-.6067-.6485-.8707-1.4577-1.45778-3.82207-1.45778-5.2798 0l-2.30966 2.3105c-1.45859 1.4578-1.45859 3.8213 0 5.2799 1.45774 1.4578 3.82123 1.4578 5.27896 0l2.0798-2.0798c-.1551.0144-.3119.0222-.47.0222z"/></g></svg>