<svg width="80" height="90" viewBox="0 0 80 90" fill="none" xmlns="http://www.w3.org/2000/svg">
<path d="M7.59981 50.9992C1.27981 58.1692 -0.800192 64.0692 1.59981 67.9992C3.14981 70.5792 6.27981 71.8792 10.8198 71.8792C13.7418 71.8222 16.6475 71.4296 19.4798 70.7092C21.9085 70.1205 24.3051 69.4062 26.6598 68.5692C29.1298 80.7392 33.6498 89.7992 39.9998 89.7992C46.3498 89.7992 50.8698 80.7192 53.3598 68.5992C59.2698 70.6792 64.7898 71.9192 69.2098 71.9192C73.6298 71.9192 76.7998 70.7492 78.4098 68.0692C81.7698 62.4692 75.9098 53.5992 66.3398 45.0092C75.9098 36.4192 81.7698 27.5392 78.4098 21.9492C75.1398 16.4992 65.0298 17.2992 53.4098 21.4092C50.8698 9.27922 46.3498 0.199219 39.9998 0.199219C33.6498 0.199219 29.1298 9.25922 26.6498 21.3692C24.2951 20.5322 21.8985 19.8179 19.4698 19.2292C10.1598 16.9992 3.99981 17.9992 1.58981 21.9392C-1.77019 27.5292 4.07981 36.3892 13.5898 44.9392C11.4781 46.8422 9.4781 48.8655 7.59981 50.9992ZM74.9998 65.9992C73.9998 67.7292 69.8698 68.8692 61.4798 66.8792C58.9803 66.2694 56.5166 65.5216 54.0998 64.6392C54.6698 61.1192 55.0998 57.4292 55.3298 53.6392C58.1298 51.6892 60.8198 49.6392 63.3298 47.5892C72.7198 55.9992 76.6598 63.1992 74.9998 65.9992ZM55.5498 41.3792C57.2165 42.5926 58.7798 43.7959 60.2398 44.9892C58.7465 46.2092 57.1831 47.4159 55.5498 48.6092C55.5498 47.4026 55.5665 46.1992 55.5998 44.9992C55.6331 43.7992 55.6165 42.5926 55.5498 41.3792ZM69.2498 22.0892C72.2498 22.0892 74.2498 22.7592 74.9798 23.9892C75.9798 25.7192 75.0998 29.8692 69.3998 36.3392C67.4925 38.4601 65.4588 40.4637 63.3098 42.3392C60.7998 40.2692 58.1098 38.2292 55.3098 36.2792C55.0598 32.5192 54.6498 28.8192 54.0798 25.2792C60.3498 23.1192 65.5698 22.0892 69.2498 22.0892ZM28.8998 56.4692C29.9131 57.1359 30.9365 57.7692 31.9698 58.3692C33.1898 59.0992 34.4298 59.8092 35.6798 60.5092C33.6798 61.5092 31.6798 62.3692 29.6798 63.1692C29.3698 60.9992 29.1098 58.7792 28.8998 56.4692ZM39.9998 85.7992C37.9998 85.7992 34.8998 82.8692 32.2898 74.6592C31.5258 72.2126 30.8982 69.7254 30.4098 67.2092C33.5298 65.9592 36.7498 64.4892 40.0098 62.8192C43.2098 64.4492 46.4298 65.9192 49.5898 67.1792C47.2198 78.9992 43.1998 85.7992 39.9998 85.7992ZM50.2998 63.1692C48.2998 62.3692 46.3598 61.4892 44.2998 60.5092C45.5331 59.8426 46.7665 59.1292 47.9998 58.3692C49.0331 57.7492 50.0565 57.1126 51.0698 56.4592C50.8831 58.8192 50.6265 61.0559 50.2998 63.1692ZM51.0998 33.5192C50.0865 32.8526 49.0631 32.2192 48.0298 31.6192C46.7965 30.8792 45.5631 30.1626 44.3298 29.4692C46.3898 28.4692 48.3898 27.5792 50.3298 26.7992C50.6198 28.9992 50.8898 31.2192 51.0998 33.5292V33.5192ZM39.9998 4.19922C41.9998 4.19922 45.0998 7.12922 47.7098 15.3392C48.4744 17.7925 49.102 20.2863 49.5898 22.8092C46.4298 24.0692 43.2098 25.5492 40.0098 27.1692C36.7498 25.4992 33.5298 24.0392 30.4098 22.7892C32.7798 10.9992 36.8098 4.19922 39.9998 4.19922ZM29.6998 26.8292C31.6998 27.6292 33.6498 28.5092 35.6998 29.4892C34.4531 30.1559 33.2198 30.8692 31.9998 31.6292C30.9598 32.2559 29.9365 32.8892 28.9298 33.5292C29.1165 31.1759 29.3731 28.9426 29.6998 26.8292ZM28.5498 38.5292C30.3165 37.3492 32.1398 36.1926 34.0198 35.0592C36.0198 33.8392 38.0198 32.7192 40.0198 31.6892C42.0198 32.7492 44.0198 33.8592 46.0198 35.0592C48.0198 36.2592 49.7598 37.3692 51.4898 38.5292C51.5898 40.6492 51.6498 42.8192 51.6498 45.0092C51.6498 47.1992 51.5898 49.3992 51.4898 51.4892C49.6898 52.6626 47.8598 53.8159 45.9998 54.9492C43.9998 56.1492 41.9998 57.2592 39.9998 58.3192C37.9998 57.2592 35.9998 56.1492 33.9998 54.9492C31.9998 53.7492 30.2598 52.6392 28.5298 51.4792C28.4298 49.3592 28.3698 47.1892 28.3698 44.9992C28.3698 42.8092 28.4598 40.6092 28.5598 38.5292H28.5498ZM4.99981 23.9992C5.99981 22.2692 10.1398 21.1392 18.5198 23.1292C21.0193 23.739 23.4831 24.4868 25.8998 25.3692C25.3298 28.8792 24.8998 32.5692 24.6698 36.3692C21.8098 38.3692 19.1198 40.3692 16.6698 42.3692C7.27981 33.9992 3.33981 26.7992 4.99981 23.9992ZM24.4498 48.6192C22.7831 47.4059 21.2198 46.2025 19.7598 45.0092C21.2465 43.7959 22.8098 42.5926 24.4498 41.3992C24.4498 42.6059 24.4331 43.8092 24.3998 45.0092C24.3665 46.2092 24.3831 47.4126 24.4498 48.6192ZM16.6898 47.6192C19.1998 49.6892 21.8898 51.7292 24.6898 53.6792C24.9398 57.4392 25.3498 61.1292 25.9198 64.6792C23.5031 65.5616 21.0393 66.3094 18.5398 66.9192C10.1598 68.9192 6.05981 67.7692 5.01981 66.0492C3.97981 64.3292 4.89981 60.1692 10.5998 53.6992C12.5043 51.5475 14.5381 49.5137 16.6898 47.6092V47.6192Z" fill="white"/>
<path d="M40 51C43.3137 51 46 48.3137 46 45C46 41.6863 43.3137 39 40 39C36.6863 39 34 41.6863 34 45C34 48.3137 36.6863 51 40 51Z" fill="white"/>
</svg>
