<svg width="5" height="9" viewBox="0 0 5 9" fill="none" xmlns="http://www.w3.org/2000/svg">
<path d="M0 8.74517V8.49033C0 8.42403 0.0248619 8.36602 0.0745856 8.3163C0.124309 8.26243 0.184392 8.2355 0.254834 8.2355H1.9703C2.05318 8.2355 2.09669 8.19406 2.10083 8.11119V3.52417C2.10083 3.4413 2.05732 3.39986 1.9703 3.39986H0.379144C0.312845 3.39986 0.252762 3.375 0.198895 3.32528C0.149171 3.27141 0.124309 3.21133 0.124309 3.14503V2.89019C0.124309 2.8239 0.149171 2.76588 0.198895 2.71616C0.252762 2.66229 0.312845 2.63536 0.379144 2.63536H2.6105C2.6768 2.63536 2.73481 2.66229 2.78453 2.71616C2.8384 2.76588 2.86533 2.8239 2.86533 2.89019V8.11119C2.86533 8.19406 2.90677 8.2355 2.98964 8.2355H4.65539C4.72169 8.2355 4.7797 8.26243 4.82942 8.3163C4.88329 8.36602 4.91022 8.42403 4.91022 8.49033V8.74517C4.91022 8.81146 4.88536 8.87155 4.83564 8.92541C4.78591 8.97514 4.72583 9 4.65539 9H0.254834C0.188536 9 0.128453 8.97514 0.0745856 8.92541C0.0248619 8.87155 0 8.81146 0 8.74517ZM1.87086 0.876381V0.20511C1.87086 0.155387 1.8895 0.109807 1.9268 0.0683702C1.96409 0.0227901 2.01381 0 2.07597 0H2.73481C2.79282 0 2.84047 0.0227901 2.87776 0.0683702C2.9192 0.109807 2.93992 0.155387 2.93992 0.20511V0.876381C2.93992 1.01312 2.87155 1.08149 2.73481 1.08149H2.07597C1.93923 1.08149 1.87086 1.01312 1.87086 0.876381Z" fill="currentColor"/>
</svg>
