<svg width="18" height="19" viewBox="0 0 18 19" fill="none" xmlns="http://www.w3.org/2000/svg">
<path d="M9.60938 16.0469C9.23438 16.3281 8.71875 16.3281 8.39062 16.0469L2.20312 11.2656C1.875 10.9844 1.35938 10.9844 0.984375 11.2656C0.46875 11.6875 0.46875 12.4375 0.984375 12.8594L7.78125 18.1094C8.48438 18.6719 9.46875 18.6719 10.2188 18.1094L16.9688 12.8594C17.4844 12.4375 17.4844 11.6875 16.9688 11.2656C16.5938 10.9844 16.125 10.9844 15.75 11.2656L9.60938 16.0469ZM10.2188 13.0469L16.9688 7.79688C17.4844 7.375 17.4844 6.57812 16.9688 6.20312L10.2188 0.953125C9.51562 0.390625 8.48438 0.390625 7.78125 0.953125L1.03125 6.20312C0.515625 6.625 0.515625 7.375 1.03125 7.79688L7.78125 13.0469C8.48438 13.6094 9.51562 13.6094 10.2188 13.0469Z" fill="#E85A43"/>
</svg>
