<svg width="20" height="12" viewBox="0 0 20 12" fill="none" xmlns="http://www.w3.org/2000/svg">
<path d="M15.0156 0.984375H12.0156C11.4531 0.984375 10.9844 1.45312 10.9844 2.01562C10.9844 2.53125 11.4531 3 12.0156 3H15.0156C16.6562 3 18.0156 4.35938 18.0156 6C18.0156 7.64062 16.6562 9 15.0156 9H12.0156C11.4531 9 10.9844 9.46875 10.9844 9.98438C10.9844 10.5469 11.4531 11.0156 12.0156 11.0156H15.0156C17.7812 11.0156 19.9844 8.76562 19.9844 6C19.9844 3.23438 17.7812 0.984375 15.0156 0.984375ZM6.01562 6C6.01562 6.5625 6.4375 6.98438 7 6.98438H13C13.5625 6.98438 13.9844 6.5625 13.9844 6C13.9844 5.4375 13.5625 5.01562 13 5.01562H7C6.4375 5.01562 6.01562 5.4375 6.01562 6ZM7.98438 9H4.98438C3.34375 9 1.98438 7.64062 1.98438 6C1.98438 4.35938 3.34375 3 4.98438 3H7.98438C8.54688 3 9.01562 2.53125 9.01562 2.01562C9.01562 1.45312 8.54688 0.984375 7.98438 0.984375H4.98438C2.21875 0.984375 0.015625 3.23438 0.015625 6C0.015625 8.76562 2.21875 11.0156 4.98438 11.0156H7.98438C8.54688 11.0156 9.01562 10.5469 9.01562 9.98438C9.01562 9.46875 8.54688 9 7.98438 9Z" fill="#E85A43"/>
</svg>
