<svg viewBox="0 0 165 29" fill="none" xmlns="http://www.w3.org/2000/svg">
<path d="M16.4844 6.89126C14.6773 5.34637 12.3775 4.49831 9.99998 4.50012C4.47079 4.50012 3.98275e-06 8.97495 3.98275e-06 14.5085C-0.00211961 16.8873 0.845046 19.1888 2.38898 20.9985L16.4844 6.89126Z" fill="url(#paint0_linear_2702_22317)"/>
<path d="M3.44714 22.0575C5.20479 23.5775 7.49165 24.4998 10.0003 24.4998C15.5289 24.4998 20 20.025 20 14.4915C20 11.9807 19.0785 9.69225 17.5598 7.93298L3.44714 22.0578V22.0575Z" fill="url(#paint1_linear_2702_22317)"/>
<path d="M38.818 10.569L35.816 7.472H31.028L28.254 10.322V13.514L31.18 14.996H35.379L37.089 15.889V17.523L35.189 19.48H31.655L29.071 16.801L28.007 17.903L31.028 21H35.816L38.571 18.15V14.958L35.74 13.476H31.522L29.736 12.564V10.949L31.655 8.992H35.189L37.773 11.671L38.818 10.569ZM47.1943 21V19.48H44.4583V8.992H47.1943V7.472H40.2593V8.992H42.9763V19.48H40.2593V21H47.1943ZM60.4572 18.15V10.322L57.6832 7.472H50.1402V21H57.6832L60.4572 18.15ZM58.9752 17.523L57.0752 19.48H51.6222V8.992H57.0752L58.9752 10.949V17.523ZM73.9836 21V19.48H65.1486V14.996H70.2596V13.476H65.1486V8.992H73.9836V7.472H63.6666V21H73.9836ZM86.2067 10.569L83.2047 7.472H78.4167L75.6427 10.322V13.514L78.5687 14.996H82.7677L84.4777 15.889V17.523L82.5777 19.48H79.0437L76.4597 16.801L75.3957 17.903L78.4167 21H83.2047L85.9597 18.15V14.958L83.1287 13.476H78.9107L77.1247 12.564V10.949L79.0437 8.992H82.5777L85.1617 11.671L86.2067 10.569ZM99.2365 21V7.472H97.7545V13.476H90.4015V7.472H88.9195V21H90.4015V14.996H97.7545V21H99.2365ZM109.13 21V19.48H106.394V8.992H109.13V7.472H102.195V8.992H104.912V19.48H102.195V21H109.13ZM122.393 8.992V7.472H112.076V21H113.558V14.996H118.669V13.476H113.558V8.992H122.393ZM133.969 8.992V7.472H123.671V8.992H128.079V21H129.561V8.992H133.969ZM139.039 21V18.568H137.367V21H139.039ZM153.249 8.992V7.472H142.932V21H144.414V14.996H149.525V13.476H144.414V8.992H153.249ZM161.881 21V19.48H159.145V8.992H161.881V7.472H154.946V8.992H157.663V19.48H154.946V21H161.881Z" fill="white"/>
<defs>
<linearGradient id="paint0_linear_2702_22317" x1="0" y1="4.50012" x2="17.0734" y2="5.13404" gradientUnits="userSpaceOnUse">
<stop stop-color="#782ED1"/>
<stop offset="0.633667" stop-color="#7000FF"/>
</linearGradient>
<linearGradient id="paint1_linear_2702_22317" x1="3.44714" y1="7.93298" x2="20.5915" y2="8.56954" gradientUnits="userSpaceOnUse">
<stop stop-color="#782ED1"/>
<stop offset="0.633667" stop-color="#7000FF"/>
</linearGradient>
</defs>
</svg>
