<svg width="68" height="12" viewBox="0 0 68 12" fill="none" xmlns="http://www.w3.org/2000/svg">
<path d="M22.2332 10.544H21.3812V2H22.2332V10.544Z" fill="white"/>
<path d="M20.0457 2.96H14.4657V5.792H17.6937V6.752H14.4657V10.544H13.5297V2H20.0457V2.96Z" fill="white"/>
<path d="M11.3934 10.544H10.5414V2H11.3934V10.544Z" fill="white"/>
<path d="M8.828 3.956L8.168 4.652L6.536 2.96H4.304L3.092 4.196V5.216L4.22 5.792H6.884L8.672 6.728V8.744L6.932 10.544H3.908L2 8.588L2.672 7.892L4.304 9.584H6.536L7.736 8.348V7.316L6.656 6.752H4.004L2.156 5.816V3.8L3.908 2H6.932L8.828 3.956Z" fill="white"/>
</svg>
