<svg fill="none" height="520" viewBox="0 0 820 520" width="820" xmlns="http://www.w3.org/2000/svg"><path d="m416.4 255.39c-.534.331-.976.795-1.286 1.347-.309.553-.475 1.176-.482 1.811.002.715.211 1.413.6 2.009.39.595.943 1.062 1.591 1.342-.255.837-.634 1.63-1.122 2.352-.699 1.021-1.429 2.041-2.541 2.041-1.111 0-1.397-.655-2.678-.655-1.249 0-1.694.677-2.71.677s-1.726-.946-2.541-2.106c-1.077-1.625-1.668-3.531-1.704-5.488 0-3.223 2.064-4.931 4.097-4.931 1.08 0 1.979.72 2.657.72.646 0 1.651-.763 2.879-.763.632-.016 1.257.125 1.822.412.565.286 1.052.709 1.418 1.232zm-3.822-3.008c.541-.646.848-1.461.868-2.308.001-.112-.01-.224-.032-.333-.929.092-1.789.542-2.403 1.256-.546.621-.864 1.414-.9 2.245.001.101.012.202.032.301.074.014.148.021.223.022.428-.035.845-.158 1.226-.361.38-.203.716-.483.986-.822z" fill="#000"/><path clip-rule="evenodd" d="m289.536 318.071c-2.79-1.686-1.372-.769-4.569-2.146-7.869-3.398-19.061-7.257-33.569-11.579-20.995-6.484-38.128-12.967-51.403-19.45-13.273-6.485-24.696-16.055-34.266-28.711-9.572-12.658-14.358-29.176-14.358-49.553 0-30.256 10.961-53.949 32.88-71.085 21.918-17.136 50.474-25.702 85.668-25.702 35.811 0 64.674 8.566 86.593 25.702 14.1 11.022 23.983 24.824 29.653 41.399l-20.072 30.15h-60.053c-.618-10.497-4.478-18.756-11.579-24.775-7.101-6.021-16.206-9.032-27.319-9.032-9.57 0-17.289 2.549-23.155 7.641-5.867 5.096-8.798 12.426-8.798 21.996 0 10.499 4.94 18.681 14.818 24.546 9.878 5.866 25.363 12.058 46.307 18.988 21.039 6.959 25.004 7.573 38.12 14.056zm177.836-160.522c-1.563 0-3.089-.05-4.583-.151-19.415 35.004-43.151 69.368-64.266 96.175-7.491 9.511-15.607 18.74-26.877 30.419 3.477 3.39 6.77 7.087 9.874 11.091 9.57 12.35 14.354 28.251 14.354 47.7 0 18.525-4.708 35.351-14.124 50.48-9.414 15.127-23.077 27.166-40.982 36.12-17.905 8.955-39.05 13.431-63.438 13.431-23.772 0-45.076-3.86-63.907-11.578-.737-.302-1.469-.612-2.197-.926-5.922 4.331-11.873 8.681-12.532 9.153-38.852 27.699-115.2251 76.655-162.2726 60.09-9.3168-3.277-16.4945-14.173-20.6962-20.852-22.58377-35.915 64.0642-173.186 84.251-188.972-18.4603 32.577-90.07104 146.199-58.2472 185.158 5.0142 6.14 18.891 6.442 39.1205 1.24 36.5545-9.397 74.7105-39.457 101.6935-63.709-5.287-4.628-10.044-9.78-14.269-15.452-11.268-15.127-17.211-33.341-17.827-54.645h84.278c1.235 12.042 5.404 21.224 12.503 27.555 7.101 6.327 16.363 9.492 27.785 9.492 11.731 0 20.993-2.701 27.784-8.105 6.792-5.401 10.186-12.887 10.186-22.457 0-4.64-.901-8.815-2.705-12.524l-2.792-4.131.163-.143c-.826-1.088-1.75-2.128-2.768-3.117l-.417-.401c57.907-50.519 103.703-107.305 140.86-175.148-4.135-1.81-7.873-4.207-11.213-7.19-8.506-7.592-12.761-17.313-12.761-29.165 0-11.848 4.255-21.6415 12.761-29.3926 8.504-7.7455 19.593-11.6219 33.261-11.6219 1.371 0 2.715.039 4.035.117-.29-7.7492-2.245-14.4031-6.249-19.6125-16.483-21.4431-78.928 19.3339-113.395 51.374-24.001-11.5383-41.422-11.8446-54.926-13.4208 59.228-45.5335 163.901-107.4101 195.243-60.9502 8.612 12.7693 7.713 35.2 3.33 49.954 1.92 1.2346 3.739 2.6213 5.46 4.1604 8.655 7.7511 12.986 17.5446 12.986 29.3926 0 11.852-4.257 21.573-12.76 29.165-8.509 7.595-19.746 11.397-33.724 11.397zm181.368 27.792h36.911v64.71h-36.911v189.571h-77.92v-189.571h-28.255v-64.71h28.255v-7.294c0-31.292 8.731-55.061 26.2-71.315 17.469-16.2562 42.909-24.3823 76.327-24.3823 5.469 0 9.57.1504 12.304.4567v66.0746c-13.67-.91-23.239 1.216-28.709 6.382-5.47 5.164-8.202 14.431-8.202 27.795zm73.36 0h77.922v254.281h-77.922v-171.058-18.513zm39.188-21.873c-13.669 0-24.756-3.801-33.262-11.396-8.506-7.593-12.759-17.314-12.759-29.168 0-11.845 4.253-21.64 12.759-29.3909 8.506-7.7455 19.593-11.622 33.262-11.622 13.676 0 24.839 3.8765 33.497 11.622 8.655 7.7509 12.988 17.5459 12.988 29.3909 0 11.854-4.259 21.575-12.762 29.168-8.509 7.595-19.746 11.396-33.723 11.396zm-254.724 21.873v254.281h-77.918v-191.52c19.106-18.644 35.617-42.697 49.163-62.761z" fill="#fff" fill-rule="evenodd"/></svg>