<svg width="20" height="20" viewBox="0 0 20 20" fill="none" xmlns="http://www.w3.org/2000/svg">
<g clip-path="url(#clip0_3451_185895)">
<path d="M18.8314 0.605225L11.3252 6.49456L12.7214 3.02389L18.8314 0.605225Z" fill="#E17726" stroke="#E17726" stroke-width="0.0703977"/>
<path d="M1.52129 0.605225L8.95879 6.54923L7.63129 3.02522L1.52129 0.605225ZM16.1313 14.2612L14.135 17.4972L18.41 18.7452L19.635 14.3319L16.1313 14.2612ZM0.727539 14.3319L1.94504 18.7452L6.21379 17.4972L4.22379 14.2612L0.727539 14.3319Z" fill="#E85A43" stroke="#E85A43" stroke-width="0.0703977"/>
<path d="M5.98047 8.79502L4.79297 10.6964L9.02422 10.9004L8.88297 6.07102L5.98047 8.79502ZM14.3692 8.79636L11.423 6.01636L11.3255 10.9004L15.558 10.6964L14.3705 8.79636H14.3692ZM6.21047 17.4977L8.77297 16.1857L6.56797 14.3644L6.21172 17.4977H6.21047ZM11.5792 16.1857L14.133 17.4977L13.783 14.3644L11.5792 16.1857Z" fill="#E85A43" stroke="#E85A43" stroke-width="0.0703977"/>
<path d="M14.1334 17.5029L11.5797 16.1909L11.7872 17.9509L11.7647 18.6963L14.1334 17.5029ZM6.21094 17.5029L8.58719 18.6963L8.57219 17.9496L8.77219 16.1909L6.21219 17.5029H6.21094Z" fill="#D5BFB2" stroke="#D5BFB2" stroke-width="0.0703977"/>
<path d="M8.63156 13.2019L6.50781 12.5419L8.00781 11.8113L8.63156 13.2019ZM11.7191 13.2019L12.3428 11.8113L13.8491 12.5419L11.7191 13.2019Z" fill="#171D23" stroke="#171D23" stroke-width="0.0703977"/>
<path d="M6.21336 17.4964L6.58461 14.2604L4.22461 14.3311L6.21336 17.4964ZM13.7721 14.2604L14.1346 17.4964L16.1321 14.3311L13.7721 14.2604ZM15.5609 10.6951L11.3284 10.8991L11.7221 13.2004L12.3471 11.8097L13.8534 12.5404L15.5609 10.6951ZM6.51086 12.5404L8.01086 11.8097L8.63336 13.2004L9.02711 10.8991L4.79586 10.6951L6.51086 12.5404Z" fill="#CC6228" stroke="#CC6228" stroke-width="0.0703977"/>
<path d="M4.79297 10.6951L6.56797 14.3617L6.50797 12.5404L4.79297 10.6951ZM13.8505 12.5404L13.783 14.3631L15.558 10.6951L13.8505 12.5404ZM9.02547 10.8991L8.63172 13.2004L9.12922 15.9177L9.24172 12.3364L9.02547 10.8991ZM11.3267 10.8991L11.118 12.3284L11.223 15.9177L11.7205 13.2004L11.3267 10.8991Z" fill="#E27525" stroke="#E27525" stroke-width="0.0703977"/>
<path d="M11.7191 13.1988L11.2228 15.9162L11.5803 16.1828L13.7841 14.3615L13.8516 12.5388L11.7203 13.1988H11.7191ZM6.50781 12.5388L6.56781 14.3615L8.77156 16.1828L9.12781 15.9162L8.63156 13.1988L6.50781 12.5388Z" fill="#E85A43" stroke="#E85A43" stroke-width="0.0703977"/>
<path d="M11.7634 18.6893L11.7859 17.9426L11.5922 17.7693H8.75719L8.57094 17.9426L8.58594 18.6893L6.21094 17.4946L7.04219 18.2173L8.72719 19.4506H11.6147L13.3072 18.2173L14.1322 17.496L11.7634 18.6893Z" fill="#C0AC9D" stroke="#C0AC9D" stroke-width="0.0703977"/>
<path d="M11.5805 16.1851L11.2242 15.9185H9.13047L8.77422 16.1851L8.57422 17.9451L8.75922 17.7718H11.5942L11.788 17.9451L11.5805 16.1851Z" fill="#161616" stroke="#161616" stroke-width="0.0703977"/>
<path d="M19.1545 6.87856L19.7857 3.62789L18.8357 0.605225L11.5832 6.29856L14.3745 8.79589L18.3157 10.0132L19.1845 8.93723L18.8057 8.64656L19.407 8.06523L18.947 7.68789L19.5482 7.20122L19.1545 6.87989V6.87856ZM0.573242 3.62789L1.21074 6.87989L0.803242 7.20122L1.41199 7.68789L0.951992 8.06523L1.55324 8.64656L1.17449 8.93723L2.04324 10.0132L5.98449 8.79589L8.77699 6.29856L1.52324 0.605225L0.573242 3.62789Z" fill="#763E1A" stroke="#763E1A" stroke-width="0.0703977"/>
<path d="M18.3138 10.0131L14.3725 8.79715L15.56 10.6971L13.785 14.3638L16.1313 14.3331H19.635L18.3138 10.0131ZM5.98379 8.79715L2.04129 10.0145L0.727539 14.3331H4.22379L6.57004 14.3651L4.79504 10.6971L5.98254 8.79715H5.98379ZM11.3275 10.9011L11.58 6.29981L12.7238 3.02515H7.62879L8.77254 6.29981L9.02504 10.9011L9.12129 12.3465L9.12879 15.9198H11.225L11.2325 12.3465L11.3288 10.9011H11.3275Z" fill="#E85A43" stroke="#E85A43" stroke-width="0.0703977"/>
</g>
<defs>
<clipPath id="clip0_3451_185895">
<rect width="20" height="20" fill="white"/>
</clipPath>
</defs>
</svg>
