<svg width="48" height="48" viewBox="0 0 48 48" fill="none" xmlns="http://www.w3.org/2000/svg">
<path d="M11.2 18.3397C11.2 17.2258 11.6425 16.1575 12.4302 15.3698L15.5699 12.2302C16.3575 11.4425 17.4258 11 18.5397 11H23.4603C24.5742 11 25.6425 11.4425 26.4302 12.2302L29.5699 15.3698C30.3575 16.1575 30.8 17.2258 30.8 18.3397V23.2603C30.8 24.3742 30.3575 25.4425 29.5699 26.2302L26.4302 29.3698C25.6425 30.1575 24.5742 30.6 23.4603 30.6H18.5397C17.4258 30.6 16.3575 30.1575 15.5699 29.3698L12.4302 26.2302C11.6425 25.4425 11.2 24.3742 11.2 23.2603V18.3397Z" stroke="white" stroke-width="1.5"/>
<line x1="27.8606" y1="28" x2="37.8" y2="37.9393" stroke="white" stroke-width="1.5" stroke-linecap="round"/>
</svg>
