<svg width="160" height="20" viewBox="0 0 160 20" fill="none" xmlns="http://www.w3.org/2000/svg">
<g clip-path="url(#clip0_5099_2963)">
<path d="M36.4829 7.38934L33.9595 4.78321H30.5123L28.6483 6.69654V8.26348L30.3803 9.15414H34.5037L37.2581 10.6056V13.7229L34.5696 16.4939H29.9019L26.9659 13.4755L27.9885 12.4035L30.5123 15.0096H33.9595L35.8232 13.0963V11.5128L34.1408 10.6387H30.0504L27.1968 9.18721V6.06988L29.9019 3.29868H34.5696L37.5056 6.31734L36.4829 7.38934ZM46.4915 4.78321H43.8357V15.0096H46.4915V16.4939H39.7288V15.0096H42.3843V4.78321H39.7288V3.29868H46.4915V4.78321ZM56.7269 16.4939H49.3707V3.29894H56.7269L59.432 6.06961V13.7229L56.7269 16.4939ZM57.9805 6.69654L56.1333 4.78321H50.8221V15.0096H56.1333L57.9805 13.0963V6.69654ZM62.5627 16.4939V3.29894H72.624V4.78321H64.0141V9.15414H68.9952V10.6387H64.0141V15.0093H72.624V16.4939H62.5627ZM83.9515 7.38934L81.4277 4.78321H77.9805L76.1168 6.69654V8.26348L77.8485 9.15414H81.9723L84.7267 10.6056V13.7229L82.0381 16.4939H77.3704L74.4344 13.4755L75.4571 12.4035L77.9805 15.0096H81.4277L83.2917 13.0963V11.5128L81.6093 10.6387H77.5187L74.6653 9.18721V6.06988L77.3704 3.29868H82.0381L84.9741 6.31734L83.9515 7.38934ZM96.2195 16.4939V10.6387H89.0611V16.4939H87.6096V3.29894H89.0611V9.15414H96.2195V3.29868H97.6709V16.4939H96.2195ZM107.313 4.78321H104.657V15.0096H107.313V16.4939H100.55V15.0096H103.206V4.78321H100.55V3.29868H107.313V4.78321ZM111.644 4.78321V9.15414H116.625V10.6387H111.644V16.4939H110.192V3.29894H120.253V4.78321H111.644ZM131.558 4.78321H127.253V16.4939H125.801V4.78321H121.496V3.29868H131.558V4.78321ZM134.856 16.4939V14.1189H136.489V16.4939H134.856ZM148.907 16.4939V10.6387H141.748V16.4939H140.297V6.06988L143.002 3.29868H147.653L150.358 6.06988V16.4939H148.907ZM148.907 6.69654L147.059 4.78321H143.596L141.748 6.69654V9.15414H148.907V6.69654ZM160 4.78321H157.345V15.0096H160V16.4939H153.238V15.0096H155.893V4.78321H153.238V3.29868H160V4.78321Z" fill="#F2F2F2"/>
<path d="M16.3139 2.3664C14.5254 0.837498 12.2494 -0.0017892 9.89654 2.86392e-06C4.42454 2.86392e-06 3.94154e-06 4.42854 3.94154e-06 9.9048C-0.00209769 12.259 0.836304 14.5367 2.36427 16.3277L16.3139 2.3664Z" fill="#E85A43"/>
<path d="M3.41144 17.3757C5.1509 18.88 7.4141 19.7928 9.89677 19.7928C15.3682 19.7928 19.793 15.3643 19.793 9.88801C19.793 7.40321 18.881 5.13841 17.3781 3.39734L3.41144 17.376V17.3757Z" fill="#E85A43"/>
</g>
<defs>
<clipPath id="clip0_5099_2963">
<rect width="160" height="20" fill="white"/>
</clipPath>
</defs>
</svg>
