<svg width="20" height="16" viewBox="0 0 20 16" fill="none" xmlns="http://www.w3.org/2000/svg">
<path d="M19.6787 7.88672C19.2291 7.88672 18.7838 7.88672 18.3273 7.88672C18.2046 7.88672 18 7.87938 18 7.75672C18 7.29983 18 6.85048 18 6.39271C18 6.27005 18.0058 6.10894 17.8831 6.10894C17.4258 6.10894 16.9795 6.10894 16.5255 6.10894C16.4026 6.10894 16.2222 6.07092 16.2222 5.94827C16.2222 5.49427 16.2222 5.04827 16.2222 4.59159C16.2222 4.46871 16.2039 4.33117 16.0812 4.33117C15.6251 4.33117 15.1775 4.33117 14.7275 4.33117C14.6048 4.33117 14.4444 4.26937 14.4444 4.14671C14.4444 3.6836 14.4444 3.23269 14.4444 2.78338C14.4444 2.66073 14.3755 2.56229 14.2529 2.56338C13.8095 2.56694 13.3553 2.56737 12.895 2.56737C12.7724 2.56737 12.6668 2.66694 12.6668 2.78959C12.6668 3.24958 12.6668 3.69649 12.6668 4.14093C12.6666 4.26403 12.6102 4.33117 12.4873 4.33117C10.8191 4.33117 9.16974 4.33117 7.50177 4.33117C7.37911 4.33117 7.33333 4.26403 7.33333 4.14137C7.33333 3.68959 7.33333 3.24224 7.33333 2.78872C7.33333 2.66606 7.20711 2.5665 7.08445 2.5665C6.62868 2.5665 6.2009 2.56606 5.76201 2.56251C5.63888 2.56163 5.55555 2.66007 5.55555 2.78273C5.55555 3.23629 5.55555 3.69163 5.55555 4.15873C5.55555 4.28164 5.39753 4.3312 5.27465 4.3312C4.81623 4.3312 4.36666 4.3312 3.90976 4.3312C3.78711 4.3312 3.77777 4.4803 3.77777 4.60295C3.77777 5.06007 3.77777 5.50651 3.77777 5.96141C3.77777 6.08429 3.58798 6.10898 3.46532 6.10898C3.00864 6.10898 2.55976 6.10898 2.10512 6.10898C1.98246 6.10898 1.77778 6.28298 1.77778 6.40586C1.77778 6.86141 1.77778 7.30851 1.77778 7.76606C1.77778 7.88871 1.78333 7.88672 1.66067 7.88672C1.20911 7.88672 0.764233 7.88672 0.32135 7.88672C0.198693 7.88672 0 8.08759 0 8.21025C0 9.86624 0 11.5025 0 13.1387C0 13.2616 0.198656 13.4422 0.32135 13.4422C0.767574 13.4422 1.20955 13.4422 1.66002 13.4422C1.78268 13.4422 1.77781 13.2611 1.77781 13.1385C1.77781 12.0867 1.77781 11.0458 1.77781 10.0018C1.77781 9.87887 1.98181 9.88668 2.1045 9.88668C2.56405 9.88668 3.01583 9.88668 3.47825 9.88668C3.6009 9.88668 3.77781 9.87913 3.77781 10.0018C3.77781 11.0556 3.77781 12.102 3.77781 13.1585C3.77781 13.2811 3.83845 13.3805 3.96136 13.3805C4.41735 13.3805 4.87781 13.3811 5.31692 13.3844C5.43957 13.3855 5.55559 13.2871 5.55559 13.1644C5.55559 12.7133 5.55559 12.262 5.55559 11.8091C5.55559 11.6864 5.58315 11.6645 5.70602 11.6645C8.57911 11.6645 11.434 11.6645 14.2951 11.6645C14.4178 11.6645 14.5173 11.7253 14.5173 11.848C14.5173 12.304 14.5167 12.764 14.5131 13.208C14.5122 13.3309 14.6104 13.4422 14.7331 13.4422C15.1802 13.4422 15.6287 13.4422 16.0865 13.4422C16.2089 13.4422 16.2222 13.28 16.2222 13.1573C16.2222 12.0956 16.2222 11.0529 16.2222 10.0049C16.2222 9.88221 16.408 9.88668 16.5308 9.88668C16.9942 9.88668 17.4493 9.88668 17.912 9.88668C18.0346 9.88668 18.2222 9.88221 18.2222 10.0049C18.2222 11.0562 18.2222 12.0974 18.2222 13.1385C18.2222 13.2611 18.234 13.4422 18.3567 13.4422C18.8047 13.4422 19.2433 13.4422 19.6784 13.4422C19.8011 13.4422 20 13.2614 20 13.1387C20 11.4896 20 9.85222 20 8.20113C20 8.07829 19.8013 7.88672 19.6787 7.88672ZM7.33336 7.74649C7.33336 7.86918 7.19426 7.88672 7.0716 7.88672C6.62116 7.88672 6.17069 7.88672 5.71405 7.88672C5.59117 7.88672 5.55562 7.86936 5.55562 7.74674C5.55562 7.29808 5.55562 6.84983 5.55562 6.3914C5.55562 6.26875 5.59139 6.10898 5.7143 6.10898C6.16986 6.10898 6.61829 6.10898 7.07142 6.10898C7.19407 6.10898 7.3334 6.26875 7.3334 6.39166C7.33336 6.8434 7.33336 7.29162 7.33336 7.74649ZM14.4445 7.75008C14.4445 7.87274 14.4074 7.88675 14.2847 7.88675C13.8356 7.88675 13.3874 7.88675 12.9296 7.88675C12.8067 7.88675 12.6667 7.87274 12.6667 7.74983C12.6667 7.29561 12.6667 6.84739 12.6667 6.39384C12.6667 6.2714 12.8069 6.10894 12.9296 6.10894C13.3818 6.10894 13.8298 6.10894 14.2847 6.10894C14.4074 6.10894 14.4445 6.27114 14.4445 6.39384C14.4445 6.84384 14.4445 7.29405 14.4445 7.75008Z" fill="white"/>
<path d="M8.86881 13.3991C8.53438 13.3993 8.19706 13.3998 7.86815 13.3989C7.14902 13.3967 6.42571 13.3936 5.70661 13.3906C5.58395 13.3902 5.48326 13.4893 5.48438 13.6122C5.48794 14.0566 5.48729 14.53 5.48747 14.9746C5.48747 15.0973 5.58591 15.2231 5.7086 15.2231C6.77705 15.2231 7.81503 15.2231 8.85192 15.2231C8.97458 15.2228 9.1077 15.0704 9.1077 14.9478C9.1077 14.5046 9.1077 14.0669 9.1077 13.6216C9.1077 13.4986 8.99146 13.3989 8.86881 13.3991Z" fill="white"/>
<path d="M14.3748 13.3986C14.3403 13.4012 14.3217 13.4259 14.2866 13.4259C13.2285 13.4266 12.1872 13.4495 11.1293 13.4495C11.0955 13.4495 11.0617 13.4495 11.0286 13.4495C10.973 13.4495 10.8906 13.5028 10.8906 13.6255C10.8906 14.079 10.8906 14.5175 10.8906 14.955C10.8906 15.0777 11.0275 15.2272 11.1504 15.2272C12.1959 15.2272 13.2334 15.2272 14.2907 15.2272C14.4134 15.2272 14.4461 15.0774 14.4461 14.9548C14.4461 14.5026 14.4461 14.0554 14.4461 13.609C14.4461 13.4864 14.4328 13.3941 14.3748 13.3986Z" fill="white"/>
<path d="M3.93277 2.55881C4.38499 2.55881 4.83186 2.55881 5.27834 2.55881C5.401 2.55881 5.49922 2.46281 5.49835 2.34015C5.49479 1.8957 5.49435 1.44835 5.49413 1.00369C5.49413 0.881033 5.39457 0.78125 5.27169 0.78125C4.81102 0.78125 4.37079 0.78125 3.93281 0.78125C3.81015 0.781032 3.78125 0.884591 3.78125 1.00747C3.78125 1.45191 3.78125 1.89171 3.78125 2.34392C3.78121 2.46655 3.81008 2.55881 3.93277 2.55881Z" fill="white"/>
<path d="M14.701 2.57101C15.1455 2.56745 15.5744 2.56701 16.0191 2.5668C16.1419 2.5668 16.2231 2.46701 16.2231 2.34436C16.2231 1.88346 16.2231 1.44327 16.2231 1.00503C16.2231 0.882376 16.1933 0.78125 16.0707 0.78125C15.6266 0.78125 15.1869 0.78125 14.7346 0.78125C14.612 0.78125 14.4453 0.882775 14.4453 1.00547C14.4453 1.45768 14.4453 1.90481 14.4453 2.35122C14.4453 2.47388 14.5784 2.5721 14.701 2.57101Z" fill="white"/>
</svg>
