<svg fill="none" height="200" viewBox="0 0 200 200" width="200" xmlns="http://www.w3.org/2000/svg" xmlns:xlink="http://www.w3.org/1999/xlink"><clipPath id="a"><rect height="200" rx="100" width="200"/></clipPath><g clip-path="url(#a)"><g stroke-width="2"><path d="m50.76 84c-.87 2.46-.84 5.03-1.6 7.56-.2067.68-.0767.7533.39.22.47-.53 1.08-.94 1.73-1.2 5.38-2.1 9.9866-4.23 13.82-6.39 7.2533-4.1 13.3833-10.05 18.39-17.85 2.31-3.59 3.79-7.61 5.69-11.39 1.07-2.13.65-4.05 2.97-5.45.5066-.3067.4666-.42-.12-.34-3.8334.5133-6.55 1.0566-8.15 1.63-16.28 5.7866-27.32 16.8566-33.12 33.21z" stroke="#4d4d4d"/><path d="m149.95 91.25.26.33c.367.4533.527.39.48-.19-.213-2.7667-.683-5.1934-1.41-7.28-4.107-11.88-11.297-21.1567-21.57-27.83-1.747-1.1334-3.563-2.1-5.45-2.9-3.13-1.32-5.88-3.1-9.36-3.44-1.567-.1534-3.067-.4267-4.5-.82-.6-.1667-.67-.04-.21.38.893.8133 1.487 1.8366 1.78 3.07.72 2.96 2.66 5.32 3.66 8.17.473 1.3733 1.09 2.6766 1.85 3.91 8.48 13.83 19.14 20.79 33.66 26.02.327.12.597.3133.81.58z" stroke="#4d4d4d"/><path d="m106.09 79.22c-.45-1.64-1.44-4.6-3.34-5.08-4.82-1.2-7.6867.2667-8.6 4.4-.2867 1.28-.7733 2.4833-1.46 3.61-2.6867 4.38-6.32 7.9567-10.9 10.73-2.12 1.28-6.85 1.61-7.61 4.4-.2667.9733-.4167 2.0067-.45 3.1-.14 5.57 4.73 4.68 7.99 6.65 4.3467 2.633 7.9167 6.12 10.71 10.46.8067 1.247 1.36 2.477 1.66 3.69.3867 1.533 1.0633 2.897 2.03 4.09.1867.233.4233.397.71.49 1.1.36 2.3067.533 3.62.52 3.89-.04 4.95-2.57 5.67-5.83.147-.667.41-1.297.79-1.89 1.74-2.72 3.487-5.01 5.24-6.87 1.52-1.61 3.54-2.54 5.2-3.96 2.19-1.87 4.88-1.72 7.27-3.3 2.3-1.53 1.78-5.92.94-7.99-.093-.2333-.24-.42-.44-.56-1.187-.8533-2.513-1.4567-3.98-1.81-1.207-.2933-2.427-.8367-3.66-1.63-3.993-2.5533-7.217-5.74-9.67-9.56-.84-1.3-1.413-2.52-1.72-3.66z" stroke="#797979"/><path d="m51.4399 109.57c-.8333-.313-1.4466-.86-1.84-1.64-.3133-.607-.4366-.57-.37.11.3734 3.927.97 6.87 1.79 8.83 1.41 3.37 2.9 7.01 4.81 10.06 4.64 7.427 10.7501 13.393 18.3301 17.9 1.32.787 3.9033 2.023 7.75 3.71 3.33 1.46 6.4299 1.6 9.7799 2.39.8667.207.9334.06.2-.44-2.01-1.38-1.96-4.18-3.08-6.22-1.22-2.233-2.2733-4.547-3.16-6.94-.8-2.14-2.27-3.6-3.44-5.52-4.05-6.63-11.36-12.84-17.47-16.21-3.8666-2.133-8.3-4.143-13.3-6.03z" stroke="#4d4d4d"/><path d="m113.06 140.38c-.747 1.767-1.547 3.51-2.4 5.23-.86 1.72-.76 3.62-2.53 4.83-.68.46-.62.603.18.43 3.19-.68 5.91-.79 9.11-2.03 15.38-5.967 26.007-16.82 31.88-32.56.547-1.46 1.017-4.077 1.41-7.85.06-.573-.08-.627-.42-.16-1.22 1.69-3.73 1.82-5.55 2.75-3.82 1.96-7.84 3.34-11.46 5.71-8.107 5.34-14.28 12.013-18.52 20.02-.567 1.073-1.133 2.283-1.7 3.63z" stroke="#4d4d4d"/></g><path d="m0 0h200v200h-200zm50.76 84c-.87 2.46-.84 5.03-1.6 7.56-.2067.68-.0767.7533.39.22.47-.53 1.08-.94 1.73-1.2 5.38-2.1 9.9867-4.23 13.82-6.39 7.2533-4.1 13.3833-10.05 18.39-17.85 2.31-3.59 3.79-7.61 5.69-11.39 1.07-2.13.65-4.05 2.97-5.45.5067-.3067.4667-.42-.12-.34-3.8333.5133-6.55 1.0567-8.15 1.63-16.28 5.7867-27.32 16.8567-33.12 33.21zm99.19 7.25.26.33c.367.4533.527.39.48-.19-.213-2.7667-.683-5.1933-1.41-7.28-4.107-11.88-11.297-21.1567-21.57-27.83-1.747-1.1333-3.563-2.1-5.45-2.9-3.13-1.32-5.88-3.1-9.36-3.44-1.567-.1533-3.067-.4267-4.5-.82-.6-.1667-.67-.04-.21.38.893.8133 1.487 1.8367 1.78 3.07.72 2.96 2.66 5.32 3.66 8.17.473 1.3733 1.09 2.6767 1.85 3.91 8.48 13.83 19.14 20.79 33.66 26.02.327.12.597.3133.81.58zm-43.86-12.03c-.45-1.64-1.44-4.6-3.34-5.08-4.82-1.2-7.6867.2667-8.6 4.4-.2867 1.28-.7733 2.4833-1.46 3.61-2.6867 4.38-6.32 7.9567-10.9 10.73-2.12 1.28-6.85 1.61-7.61 4.4-.2667.9733-.4167 2.0067-.45 3.1-.14 5.57 4.73 4.68 7.99 6.65 4.3467 2.633 7.9167 6.12 10.71 10.46.8067 1.247 1.36 2.477 1.66 3.69.3867 1.533 1.0633 2.897 2.03 4.09.1867.233.4233.397.71.49 1.1.36 2.3067.533 3.62.52 3.89-.04 4.95-2.57 5.67-5.83.147-.667.41-1.297.79-1.89 1.74-2.72 3.487-5.01 5.24-6.87 1.52-1.61 3.54-2.54 5.2-3.96 2.19-1.87 4.88-1.72 7.27-3.3 2.3-1.53 1.78-5.92.94-7.99-.093-.2333-.24-.42-.44-.56-1.187-.8533-2.513-1.4567-3.98-1.81-1.207-.2933-2.427-.8367-3.66-1.63-3.993-2.5533-7.217-5.74-9.67-9.56-.84-1.3-1.413-2.52-1.72-3.66zm-54.65 30.35c-.8333-.313-1.4467-.86-1.84-1.64-.3133-.607-.4367-.57-.37.11.3733 3.927.97 6.87 1.79 8.83 1.41 3.37 2.9 7.01 4.81 10.06 4.64 7.427 10.75 13.393 18.33 17.9 1.32.787 3.9033 2.023 7.75 3.71 3.33 1.46 6.43 1.6 9.78 2.39.8667.207.9333.06.2-.44-2.01-1.38-1.96-4.18-3.08-6.22-1.22-2.233-2.2733-4.547-3.16-6.94-.8-2.14-2.27-3.6-3.44-5.52-4.05-6.63-11.36-12.84-17.47-16.21-3.8667-2.133-8.3-4.143-13.3-6.03zm61.62 30.81c-.747 1.767-1.547 3.51-2.4 5.23-.86 1.72-.76 3.62-2.53 4.83-.68.46-.62.603.18.43 3.19-.68 5.91-.79 9.11-2.03 15.38-5.967 26.007-16.82 31.88-32.56.547-1.46 1.017-4.077 1.41-7.85.06-.573-.08-.627-.42-.16-1.22 1.69-3.73 1.82-5.55 2.75-3.82 1.96-7.84 3.34-11.46 5.71-8.107 5.34-14.28 12.013-18.52 20.02-.567 1.073-1.133 2.283-1.7 3.63z" fill="#000"/><path d="m49.16 91.56c.76-2.53.73-5.1 1.6-7.56 5.8-16.3533 16.84-27.4233 33.12-33.21 1.6-.5733 4.3166-1.1166 8.15-1.63.5866-.08.6266.0334.12.34-2.32 1.4-1.9 3.32-2.97 5.45-1.9 3.78-3.38 7.8-5.69 11.39-5.0067 7.8-11.1367 13.75-18.39 17.85-3.8334 2.16-8.44 4.29-13.82 6.39-.65.26-1.26.67-1.73 1.2-.4667.5334-.5967.46-.39-.22z" fill="#999"/><path d="m149.14 90.67c-14.52-5.23-25.18-12.19-33.66-26.02-.76-1.2334-1.377-2.5367-1.85-3.91-1-2.85-2.94-5.21-3.66-8.17-.293-1.2334-.887-2.2567-1.78-3.07-.46-.42-.39-.5467.21-.38 1.433.3933 2.933.6666 4.5.82 3.48.34 6.23 2.12 9.36 3.44 1.887.8 3.703 1.7666 5.45 2.9 10.273 6.6733 17.463 15.95 21.57 27.83.727 2.0866 1.197 4.5133 1.41 7.28.047.58-.113.6433-.48.19l-.26-.33c-.213-.2667-.483-.46-.81-.58z" fill="#999"/><path d="m107.81 82.88c2.453 3.82 5.677 7.0067 9.67 9.56 1.233.7933 2.453 1.3367 3.66 1.63 1.467.3533 2.793.9567 3.98 1.81.2.14.347.3267.44.56.84 2.07 1.36 6.46-.94 7.99-2.39 1.58-5.08 1.43-7.27 3.3-1.66 1.42-3.68 2.35-5.2 3.96-1.753 1.86-3.5 4.15-5.24 6.87-.38.593-.643 1.223-.79 1.89-.72 3.26-1.78 5.79-5.67 5.83-1.3133.013-2.52-.16-3.62-.52-.2867-.093-.5233-.257-.71-.49-.9667-1.193-1.6433-2.557-2.03-4.09-.3-1.213-.8533-2.443-1.66-3.69-2.7933-4.34-6.3633-7.827-10.71-10.46-3.26-1.97-8.13-1.08-7.99-6.65.0333-1.0933.1833-2.1267.45-3.1.76-2.79 5.49-3.12 7.61-4.4 4.58-2.7733 8.2133-6.35 10.9-10.73.6867-1.1267 1.1733-2.33 1.46-3.61.9133-4.1333 3.78-5.6 8.6-4.4 1.9.48 2.89 3.44 3.34 5.08.307 1.14.88 2.36 1.72 3.66z" fill="#f2f2f2"/><path d="m51.4399 109.57c5 1.887 9.4334 3.897 13.3 6.03 6.11 3.37 13.42 9.58 17.47 16.21 1.17 1.92 2.64 3.38 3.44 5.52.8867 2.393 1.94 4.707 3.16 6.94 1.12 2.04 1.07 4.84 3.08 6.22.7334.5.6667.647-.2.44-3.35-.79-6.4499-.93-9.7799-2.39-3.8467-1.687-6.43-2.923-7.75-3.71-7.58-4.507-13.6901-10.473-18.3301-17.9-1.91-3.05-3.4-6.69-4.81-10.06-.82-1.96-1.4166-4.903-1.79-8.83-.0666-.68.0567-.717.37-.11.3934.78 1.0067 1.327 1.84 1.64z" fill="#999"/><path d="m113.06 140.38c.567-1.347 1.133-2.557 1.7-3.63 4.24-8.007 10.413-14.68 18.52-20.02 3.62-2.37 7.64-3.75 11.46-5.71 1.82-.93 4.33-1.06 5.55-2.75.34-.467.48-.413.42.16-.393 3.773-.863 6.39-1.41 7.85-5.873 15.74-16.5 26.593-31.88 32.56-3.2 1.24-5.92 1.35-9.11 2.03-.8.173-.86.03-.18-.43 1.77-1.21 1.67-3.11 2.53-4.83.853-1.72 1.653-3.463 2.4-5.23z" fill="#999"/></g></svg>