<svg fill="none" height="60" viewBox="0 0 60 60" width="60" xmlns="http://www.w3.org/2000/svg" xmlns:xlink="http://www.w3.org/1999/xlink"><linearGradient id="a" gradientUnits="userSpaceOnUse" x1="10.5" x2="49.5" y1="6" y2="53"><stop offset="0" stop-color="#fbf0f4"/><stop offset=".989" stop-color="#fde1ef"/></linearGradient><linearGradient id="b" gradientUnits="userSpaceOnUse" x1="43.5" x2="14" y1="55.5" y2="6.5"><stop offset="0" stop-color="#fd007a"/><stop offset="1" stop-color="#fd65ae"/></linearGradient><clipPath id="c"><path d="m0 0h35v37.5h-35z" transform="translate(13 11)"/></clipPath><circle cx="30" cy="30" fill="url(#a)" r="29.5" stroke="url(#b)"/><g clip-path="url(#c)" fill="#ff007a"><path d="m23.38 14.877c-.47-.072-.49-.08-.267-.112.425-.065 1.425.022 2.114.185 1.61.38 3.075 1.355 4.64 3.088l.415.46.596-.096c2.505-.4 5.05-.082 7.182.895.587.27 1.512.805 1.625.943.04.045.107.325.15.628.16 1.045.082 1.842-.24 2.44-.175.325-.185.427-.067.707a.686.686 0 0 0 .614.385c.53 0 1.1-.85 1.363-2.035l.105-.473.208.236c1.142 1.285 2.037 3.035 2.19 4.28l.04.325-.19-.296a3.655 3.655 0 0 0 -1.088-1.132c-.765-.503-1.575-.675-3.715-.788-1.935-.1-3.03-.264-4.115-.617-1.847-.6-2.777-1.395-4.972-4.255-.976-1.273-1.576-1.975-2.175-2.54-1.363-1.287-2.7-1.963-4.413-2.225z"/><path d="m40.125 17.715c.047-.85.163-1.413.398-1.925.051-.13.115-.253.192-.37.012 0-.028.15-.09.332-.17.5-.2 1.18-.08 1.973.15 1.005.233 1.15 1.3 2.235.502.51 1.085 1.15 1.297 1.427l.386.5-.386-.357c-.47-.438-1.55-1.293-1.79-1.415-.16-.08-.184-.08-.282.018-.093.09-.11.225-.125.864-.017.998-.155 1.638-.485 2.276-.178.35-.205.274-.045-.118.12-.29.133-.42.133-1.385 0-1.938-.236-2.405-1.593-3.2a14.93 14.93 0 0 0 -1.26-.65 4.78 4.78 0 0 1 -.615-.3c.038-.038 1.363.348 1.895.55.795.305.925.342 1.023.307.062-.024.095-.212.125-.762zm-15.832 3.317c-.953-1.305-1.546-3.307-1.415-4.805l.037-.462.218.037c.41.075 1.112.335 1.442.535.902.546 1.295 1.263 1.692 3.108.118.54.27 1.15.34 1.36.113.332.543 1.11.89 1.615.25.365.085.537-.47.487-.847-.075-1.995-.862-2.735-1.875zm14.672 9.718c-4.46-1.782-6.03-3.332-6.03-5.945 0-.385.012-.7.03-.7.015 0 .188.125.382.282.905.72 1.918 1.028 4.723 1.436 1.65.24 2.575.432 3.432.715 2.725.897 4.408 2.717 4.81 5.2.116.72.05 2.07-.142 2.782-.15.563-.605 1.575-.725 1.615-.035.013-.068-.115-.075-.29-.045-.93-.52-1.837-1.315-2.517-.905-.773-2.12-1.388-5.09-2.576zm-3.13.742a7.835 7.835 0 0 0 -.215-.937l-.115-.337.212.237c.293.325.526.743.72 1.3.15.425.166.55.166 1.24 0 .678-.02.82-.16 1.2a3.795 3.795 0 0 1 -.94 1.49c-.816.825-1.863 1.28-3.376 1.47a34.74 34.74 0 0 1 -1.7.123c-1.697.087-2.814.27-3.817.62a.81.81 0 0 1 -.287.067c-.04-.04.645-.445 1.207-.715.795-.383 1.587-.59 3.362-.883.875-.145 1.783-.322 2.013-.392 2.17-.66 3.288-2.367 2.93-4.483z"/><path d="m37.88 35.102c-.593-1.264-.73-2.487-.405-3.627.035-.125.09-.223.125-.223.032 0 .175.076.31.168.275.182.82.49 2.28 1.28 1.82.987 2.86 1.75 3.565 2.625.617.762 1 1.635 1.185 2.695.105.6.043 2.05-.112 2.655-.49 1.91-1.626 3.41-3.25 4.285-.238.127-.45.233-.476.233-.022 0 .066-.218.193-.485.547-1.136.61-2.238.197-3.465-.255-.753-.77-1.67-1.81-3.223-1.21-1.8-1.505-2.283-1.802-2.918zm-16.755 6.833c1.657-1.39 3.715-2.375 5.593-2.68a8.775 8.775 0 0 1 2.902.112c1.2.306 2.275.99 2.832 1.803.546.797.78 1.49 1.026 3.035.094.608.2 1.22.23 1.358.182.8.54 1.44.98 1.76.7.51 1.91.542 3.097.082.123-.057.254-.097.388-.12.042.043-.556.44-.976.65-.498.265-1.055.4-1.62.39-1.087 0-1.99-.55-2.744-1.67a13.25 13.25 0 0 1 -.74-1.47c-.796-1.803-1.188-2.35-2.11-2.953-.806-.524-1.843-.617-2.623-.237-1.025.5-1.31 1.8-.575 2.625.343.355.793.588 1.28.665a1.364 1.364 0 0 0 1.547-1.36c0-.542-.21-.85-.737-1.09-.723-.322-1.495.055-1.492.727 0 .288.127.468.417.6.185.083.19.088.037.058-.66-.137-.814-.93-.285-1.455.64-.63 1.96-.352 2.413.51.19.363.212 1.083.047 1.517-.375.975-1.454 1.488-2.555 1.208-.75-.19-1.052-.395-1.954-1.318-1.568-1.605-2.175-1.917-4.436-2.267l-.434-.068z"/><path clip-rule="evenodd" d="m13.77 13.21c5.235 6.315 8.843 8.92 9.242 9.47.33.455.206.865-.36 1.185-.401.202-.839.323-1.287.358-.367 0-.495-.14-.495-.14-.213-.2-.332-.165-1.425-2.093a332.305 332.305 0 0 0 -2.82-4.315c-.08-.075-.078-.075 2.668 4.808.442 1.017.087 1.39.087 1.534 0 .296-.082.45-.447.858-.61.675-.883 1.435-1.08 3.008-.22 1.762-.84 3.007-2.56 5.14-1.005 1.247-1.17 1.474-1.425 1.98-.32.632-.408.987-.443 1.785-.038.847.035 1.392.295 2.2.225.71.465 1.175 1.072 2.11.526.807.825 1.407.825 1.642 0 .185.035.185.85.002 1.94-.434 3.518-1.2 4.405-2.142.55-.583.678-.903.683-1.7.003-.52-.015-.63-.157-.93-.23-.487-.65-.895-1.575-1.525-1.215-.825-1.736-1.487-1.875-2.4-.12-.75.017-1.278.687-2.675.695-1.45.867-2.068.985-3.525.075-.942.177-1.315.45-1.615.285-.31.54-.415 1.245-.51 1.147-.157 1.875-.45 2.475-1a2.132 2.132 0 0 0 .775-1.63l.025-.525-.293-.335c-1.052-1.22-11.231-9.98-11.297-9.98-.012 0 .332.432.77.96zm2.44 24.538a.925.925 0 0 0 -.288-1.223c-.375-.25-.962-.13-.962.193 0 .1.055.172.18.234.21.108.225.228.06.476-.167.247-.152.465.038.614.307.238.742.108.972-.294zm9.102-11.75c-.537.162-1.06.73-1.225 1.325-.097.362-.04 1 .108 1.194.24.318.47.4 1.098.398 1.224-.008 2.29-.53 2.415-1.185.1-.535-.368-1.275-1.013-1.602a2.412 2.412 0 0 0 -1.383-.13zm1.435 1.112c.188-.267.105-.555-.217-.75-.61-.372-1.538-.065-1.538.51 0 .287.483.6.925.6.295 0 .7-.175.83-.36z" fill-rule="evenodd"/></g></svg>